<svg xmlns="http://www.w3.org/2000/svg" width="32" height="32"><rect width="30" height="30" x="1" y="1" fill="#fff" rx="2" ry="2"/><path fill="#e3e3e3" d="M3 1h26a2 2 0 0 1 2 2v14H1V3a2 2 0 0 1 2-2z"/><rect width="25" height="11" x="3.5" y="3.5" fill="#fff" rx="1" ry="1"/><path fill="#fcfcfc" d="M4.5 3.5h12v11h-12a1 1 0 0 1-1-1v-9a1 1 0 0 1 1-1z"/><rect width="30" height="30" x="1" y="1" fill="none" stroke="#999" stroke-width="2" rx="2" ry="2"/><path stroke="#999" d="M1.5 16.5h29"/><path stroke="#b3b3b3" d="M16.5 3.5v11"/><rect width="25" height="11" x="3.5" y="3.5" fill="none" stroke="#b3b3b3" rx="1" ry="1"/><path fill="#595959" d="M13 8H9.4l1.3-1.3a1 1 0 0 0-1.4-1.4l-3 3a1 1 0 0 0 0 1.4l3 3a1 1 0 0 0 1.4-1.4L9.4 10H13a1 1 0 0 0 0-2z"/></svg>