<svg xmlns="http://www.w3.org/2000/svg" width="32" height="32"><rect width="30" height="30" x="1" y="1" fill="#727780" rx="2" ry="2"/><path fill="#393f4c" d="M3 1h26a2 2 0 0 1 2 2v14H1V3a2 2 0 0 1 2-2z"/><rect width="25" height="11" x="3.5" y="3.5" fill="#171b1f" rx="1" ry="1"/><path fill="#252c33" d="M4.5 3.5h12v11h-12a1 1 0 0 1-1-1v-9a1 1 0 0 1 1-1z"/><rect width="30" height="30" x="1" y="1" fill="none" stroke="#1d2328" stroke-width="2" rx="2" ry="2"/><path d="M10 6L7 9l3 3M7.5 9H13" class="icon-line-2px"/><path stroke="#1d2328" d="M1.5 16.5h29"/><path d="M16.5 3.5v11" class="separator-toolbar-items"/><rect width="25" height="11" x="3.5" y="3.5" fill="none" stroke="#171b1f" rx="1" ry="1"/><path fill="#f0f1f2" d="M13 8H9.4l1.3-1.3a1 1 0 0 0-1.4-1.4l-3 3a1 1 0 0 0 0 1.4l3 3a1 1 0 0 0 1.4-1.4L9.4 10H13a1 1 0 0 0 0-2z"/></svg>