<svg xmlns="http://www.w3.org/2000/svg" xmlns:xlink="http://www.w3.org/1999/xlink" width="16" height="16" viewBox="0 0 16 16"><defs><linearGradient id="b"><stop offset="0" stop-color="#747254"/><stop offset="1" stop-color="#8b8965"/></linearGradient><linearGradient id="a"><stop offset="0" stop-color="#e1e1d7"/><stop offset="1" stop-color="#f2f2ee"/></linearGradient><linearGradient id="g" x1="13" x2="2.9" y1="13" y2="4.8" gradientTransform="translate(-2.28 -2.28) scale(1.1724)" gradientUnits="userSpaceOnUse" xlink:href="#a"/><linearGradient id="h" x1="15" x2="4.8" y1="11.1" y2="2.7" gradientTransform="translate(-2.28 -2.28) scale(1.1724)" gradientUnits="userSpaceOnUse" xlink:href="#b"/><linearGradient id="i" x1="8.6" x2="6.3" y1="4.3" y2=".6" gradientTransform="matrix(.62854 0 0 .6863 5.97 6.076)" gradientUnits="userSpaceOnUse" xlink:href="#c"/><linearGradient id="c"><stop offset="0" stop-color="#c8c8c8"/><stop offset="1" stop-color="#dcdcdc"/></linearGradient><linearGradient id="j" x1="7.2" x2="5" y1="5.1" y2="1.4" gradientTransform="matrix(.62854 0 0 .6863 5.97 6.076)" gradientUnits="userSpaceOnUse" xlink:href="#d"/><linearGradient id="d"><stop offset="0" stop-color="#787878"/><stop offset="1" stop-color="#8c8c8c"/></linearGradient><linearGradient id="k" x1="11.4" x2="4.6" y1="1052.1" y2="1040.7" gradientTransform="matrix(.6104 0 0 .57897 6.117 -593.406)" gradientUnits="userSpaceOnUse" xlink:href="#c"/><linearGradient id="l" x1="8.8" x2="1.9" y1="1053.4" y2="1041.9" gradientTransform="matrix(.6104 0 0 .57897 6.117 -593.406)" gradientUnits="userSpaceOnUse" xlink:href="#d"/><linearGradient id="m" x1="8.5" x2="6.6" y1="12.5" y2="7.8" gradientTransform="matrix(.7015 0 0 .70214 5.388 5.378)" gradientUnits="userSpaceOnUse" xlink:href="#e"/><linearGradient id="e"><stop offset="0" stop-color="#505050"/><stop offset="1" stop-color="#787878"/></linearGradient><linearGradient id="n" x1="9.4" x2="7.4" y1="12.1" y2="7.4" gradientTransform="matrix(.7015 0 0 .70214 5.388 5.378)" gradientUnits="userSpaceOnUse" xlink:href="#f"/><linearGradient id="f"><stop offset="0" stop-color="#787878"/><stop offset="1" stop-color="#b4b4b4"/></linearGradient></defs><path fill="url(#g)" stroke="url(#h)" stroke-linejoin="round" stroke-width=".6" d="M9.5.3L11 2l1 .7h.7c.7 0 1.2.5 1.2 1.2v8.7c0 .7-.6 1.2-1.3 1.2H1.5c-.7 0-1.2-.6-1.2-1.3V4c0-.8.5-1.3 1.2-1.3H7l.8-.8L9.4.2z"/><path fill="url(#i)" stroke="url(#j)" stroke-linejoin="round" stroke-width=".6" d="M11 6.3a3 3 0 0 0-3 3l.4-.2h1c0-.8.7-1.5 1.6-1.5 1 0 1.6.7 1.7 1.6h1l.2.2a3 3 0 0 0-3-3z"/><rect width="9.4" height="6.6" x="6.3" y="9.1" fill="url(#k)" stroke="url(#l)" stroke-linejoin="round" stroke-width=".6" rx=".8" ry=".8"/><path fill="url(#m)" stroke="url(#n)" stroke-linejoin="round" stroke-width=".4" d="M11 10.5a1.2 1.2 0 0 0-1.2 1.2c0 .5.4 1 1 1v1.6h.5v-1.5c.5 0 1-.6 1-1a1.2 1.2 0 0 0-1.3-1.3z"/></svg>