<svg xmlns="http://www.w3.org/2000/svg" xmlns:svg="http://www.w3.org/2000/svg" id="svg10302" width="650" height="400" version="1.1" viewBox="0 0 650 400"><defs id="defs10304"><marker id="DotS" orient="auto" overflow="visible" refX="0" refY="0"><path id="path3941" fill-rule="evenodd" stroke="#000" stroke-width="1pt" marker-end="none" marker-start="none" d="m -2.5,-1 c 0,2.76 -2.24,5 -5,5 -2.76,0 -5,-2.24 -5,-5 0,-2.76 2.24,-5 5,-5 2.76,0 5,2.24 5,5 z" transform="matrix(0.2,0,0,0.2,1.48,0.2)"/></marker><marker id="Arrow1Send" orient="auto" overflow="visible" refX="0" refY="0"><path id="path3888" fill-rule="evenodd" stroke="#000" stroke-width="1pt" marker-start="none" d="M 0,0 5,-5 -12.5,0 5,5 0,0 z" transform="matrix(-0.2,0,0,-0.2,-1.2,0)"/></marker><marker id="DotS-0" orient="auto" overflow="visible" refX="0" refY="0"><path id="path3941-3" fill-rule="evenodd" stroke="#000" stroke-width="1pt" marker-end="none" marker-start="none" d="m -2.5,-1 c 0,2.76 -2.24,5 -5,5 -2.76,0 -5,-2.24 -5,-5 0,-2.76 2.24,-5 5,-5 2.76,0 5,2.24 5,5 z" transform="matrix(0.2,0,0,0.2,1.48,0.2)"/></marker><marker id="Arrow1Send-4" orient="auto" overflow="visible" refX="0" refY="0"><path id="path3888-2" fill-rule="evenodd" stroke="#000" stroke-width="1pt" marker-start="none" d="M 0,0 5,-5 -12.5,0 5,5 0,0 z" transform="matrix(-0.2,0,0,-0.2,-1.2,0)"/></marker><marker id="DotS-6" orient="auto" overflow="visible" refX="0" refY="0"><path id="path3941-6" fill-rule="evenodd" stroke="#000" stroke-width="1pt" marker-end="none" marker-start="none" d="m -2.5,-1 c 0,2.76 -2.24,5 -5,5 -2.76,0 -5,-2.24 -5,-5 0,-2.76 2.24,-5 5,-5 2.76,0 5,2.24 5,5 z" transform="matrix(0.2,0,0,0.2,1.48,0.2)"/></marker><marker id="Arrow1Send-7" orient="auto" overflow="visible" refX="0" refY="0"><path id="path3888-3" fill-rule="evenodd" stroke="#000" stroke-width="1pt" marker-start="none" d="M 0,0 5,-5 -12.5,0 5,5 0,0 z" transform="matrix(-0.2,0,0,-0.2,-1.2,0)"/></marker><marker id="DotS-1" orient="auto" overflow="visible" refX="0" refY="0"><path id="path3941-63" fill-rule="evenodd" stroke="#000" stroke-width="1pt" marker-end="none" marker-start="none" d="m -2.5,-1 c 0,2.76 -2.24,5 -5,5 -2.76,0 -5,-2.24 -5,-5 0,-2.76 2.24,-5 5,-5 2.76,0 5,2.24 5,5 z" transform="matrix(0.2,0,0,0.2,1.48,0.2)"/></marker><marker id="Arrow1Send-8" orient="auto" overflow="visible" refX="0" refY="0"><path id="path3888-6" fill-rule="evenodd" stroke="#000" stroke-width="1pt" marker-start="none" d="M 0,0 5,-5 -12.5,0 5,5 0,0 z" transform="matrix(-0.2,0,0,-0.2,-1.2,0)"/></marker><marker id="DotS-1-7" orient="auto" overflow="visible" refX="0" refY="0"><path id="path3941-63-9" fill-rule="evenodd" stroke="#000" stroke-width="1pt" marker-end="none" marker-start="none" d="m -2.5,-1 c 0,2.76 -2.24,5 -5,5 -2.76,0 -5,-2.24 -5,-5 0,-2.76 2.24,-5 5,-5 2.76,0 5,2.24 5,5 z" transform="matrix(0.2,0,0,0.2,1.48,0.2)"/></marker><marker id="Arrow1Send-8-4" orient="auto" overflow="visible" refX="0" refY="0"><path id="path3888-6-4" fill-rule="evenodd" stroke="#000" stroke-width="1pt" marker-start="none" d="M 0,0 5,-5 -12.5,0 5,5 0,0 z" transform="matrix(-0.2,0,0,-0.2,-1.2,0)"/></marker><marker id="DotS-4" orient="auto" overflow="visible" refX="0" refY="0"><path id="path3941-4" fill-rule="evenodd" stroke="#000" stroke-width="1pt" marker-end="none" marker-start="none" d="m -2.5,-1 c 0,2.76 -2.24,5 -5,5 -2.76,0 -5,-2.24 -5,-5 0,-2.76 2.24,-5 5,-5 2.76,0 5,2.24 5,5 z" transform="matrix(0.2,0,0,0.2,1.48,0.2)"/></marker><marker id="Arrow1Send-79" orient="auto" overflow="visible" refX="0" refY="0"><path id="path3888-8" fill-rule="evenodd" stroke="#000" stroke-width="1pt" marker-start="none" d="M 0,0 5,-5 -12.5,0 5,5 0,0 z" transform="matrix(-0.2,0,0,-0.2,-1.2,0)"/></marker><marker id="DotS-11" orient="auto" overflow="visible" refX="0" refY="0"><path id="path3941-9" fill-rule="evenodd" stroke="#000" stroke-width="1pt" marker-end="none" marker-start="none" d="m -2.5,-1 c 0,2.76 -2.24,5 -5,5 -2.76,0 -5,-2.24 -5,-5 0,-2.76 2.24,-5 5,-5 2.76,0 5,2.24 5,5 z" transform="matrix(0.2,0,0,0.2,1.48,0.2)"/></marker><marker id="Arrow1Send-0" orient="auto" overflow="visible" refX="0" refY="0"><path id="path3888-0" fill-rule="evenodd" stroke="#000" stroke-width="1pt" marker-start="none" d="M 0,0 5,-5 -12.5,0 5,5 0,0 z" transform="matrix(-0.2,0,0,-0.2,-1.2,0)"/></marker><marker id="DotS-2" orient="auto" overflow="visible" refX="0" refY="0"><path id="path3941-96" fill-rule="evenodd" stroke="#000" stroke-width="1pt" marker-end="none" marker-start="none" d="m -2.5,-1 c 0,2.76 -2.24,5 -5,5 -2.76,0 -5,-2.24 -5,-5 0,-2.76 2.24,-5 5,-5 2.76,0 5,2.24 5,5 z" transform="matrix(0.2,0,0,0.2,1.48,0.2)"/></marker><marker id="Arrow1Send-2" orient="auto" overflow="visible" refX="0" refY="0"><path id="path3888-4" fill-rule="evenodd" stroke="#000" stroke-width="1pt" marker-start="none" d="M 0,0 5,-5 -12.5,0 5,5 0,0 z" transform="matrix(-0.2,0,0,-0.2,-1.2,0)"/></marker><marker id="DotS-1-72" orient="auto" overflow="visible" refX="0" refY="0"><path id="path3941-63-1" fill-rule="evenodd" stroke="#000" stroke-width="1pt" marker-end="none" marker-start="none" d="m -2.5,-1 c 0,2.76 -2.24,5 -5,5 -2.76,0 -5,-2.24 -5,-5 0,-2.76 2.24,-5 5,-5 2.76,0 5,2.24 5,5 z" transform="matrix(0.2,0,0,0.2,1.48,0.2)"/></marker><marker id="Arrow1Send-8-8" orient="auto" overflow="visible" refX="0" refY="0"><path id="path3888-6-8" fill-rule="evenodd" stroke="#000" stroke-width="1pt" marker-start="none" d="M 0,0 5,-5 -12.5,0 5,5 0,0 z" transform="matrix(-0.2,0,0,-0.2,-1.2,0)"/></marker><marker id="DotS-67" orient="auto" overflow="visible" refX="0" refY="0"><path id="path3941-5" fill-rule="evenodd" stroke="#000" stroke-width="1pt" marker-end="none" marker-start="none" d="m -2.5,-1 c 0,2.76 -2.24,5 -5,5 -2.76,0 -5,-2.24 -5,-5 0,-2.76 2.24,-5 5,-5 2.76,0 5,2.24 5,5 z" transform="matrix(0.2,0,0,0.2,1.48,0.2)"/></marker><marker id="Arrow1Send-78" orient="auto" overflow="visible" refX="0" refY="0"><path id="path3888-89" fill-rule="evenodd" stroke="#000" stroke-width="1pt" marker-start="none" d="M 0,0 5,-5 -12.5,0 5,5 0,0 z" transform="matrix(-0.2,0,0,-0.2,-1.2,0)"/></marker><marker id="DotS-1-6" orient="auto" overflow="visible" refX="0" refY="0"><path id="path3941-63-5" fill-rule="evenodd" stroke="#000" stroke-width="1pt" marker-end="none" marker-start="none" d="m -2.5,-1 c 0,2.76 -2.24,5 -5,5 -2.76,0 -5,-2.24 -5,-5 0,-2.76 2.24,-5 5,-5 2.76,0 5,2.24 5,5 z" transform="matrix(0.2,0,0,0.2,1.48,0.2)"/></marker><marker id="Arrow1Send-8-3" orient="auto" overflow="visible" refX="0" refY="0"><path id="path3888-6-5" fill-rule="evenodd" stroke="#000" stroke-width="1pt" marker-start="none" d="M 0,0 5,-5 -12.5,0 5,5 0,0 z" transform="matrix(-0.2,0,0,-0.2,-1.2,0)"/></marker><marker id="DotS-1-8" orient="auto" overflow="visible" refX="0" refY="0"><path id="path3941-63-18" fill-rule="evenodd" stroke="#000" stroke-width="1pt" marker-end="none" marker-start="none" d="m -2.5,-1 c 0,2.76 -2.24,5 -5,5 -2.76,0 -5,-2.24 -5,-5 0,-2.76 2.24,-5 5,-5 2.76,0 5,2.24 5,5 z" transform="matrix(0.2,0,0,0.2,1.48,0.2)"/></marker><marker id="Arrow1Send-8-35" orient="auto" overflow="visible" refX="0" refY="0"><path id="path3888-6-2" fill-rule="evenodd" stroke="#000" stroke-width="1pt" marker-start="none" d="M 0,0 5,-5 -12.5,0 5,5 0,0 z" transform="matrix(-0.2,0,0,-0.2,-1.2,0)"/></marker></defs><metadata id="metadata10307"/><g id="debuggeeset" class="flip" display="inline"><rect id="rect3755-3-0-6-1-8-6" width="171.317" height="150.685" x=".11" y="248.55" fill="#c8c0c0" fill-opacity="1" stroke="#000" stroke-dasharray="4.365 4.365" stroke-dashoffset="0" stroke-miterlimit="4" stroke-opacity="1" stroke-width="2.182" display="inline" rx="4.035" ry="4.814"/><text id="text22690" x="9.875" y="268.844" fill="#000" fill-opacity="1" stroke="none" display="inline" font-family="Sans" font-size="14.12" font-style="normal" font-weight="normal" letter-spacing="0" word-spacing="0" xml:space="preserve" style="line-height:125%"><tspan id="tspan22692" x="9.875" y="268.844">Debugger</tspan></text></g><g id="shadows" class="flip" display="inline"><rect id="rect3755-5-68" width="119.421" height="42.398" x="25.236" y="160.02" fill="#969696" fill-opacity="1" stroke="none" display="inline" rx="11.065" ry="11.065"/><rect id="rect3755-3-0-6-1-8" width="177.655" height="46.615" x="209.361" y="336.42" fill="#969696" fill-opacity="1" stroke="none" display="inline" rx="4.039" ry="4.039"/><rect id="rect3755-3-0-6-1-3-43" width="149.122" height="46.615" x="237.894" y="287.164" fill="#969696" fill-opacity="1" stroke="none" display="inline" rx="4.039" ry="4.039"/><rect id="rect3755-5-6-1" width="119.421" height="42.398" x="192.177" y="161.099" fill="#969696" fill-opacity="1" stroke="none" display="inline" rx="11.065" ry="11.065"/><rect id="rect3755-5-2-4" width="136.405" height="46.615" x="26.006" y="336.42" fill="#969696" fill-opacity="1" stroke="none" display="inline" rx="11.065" ry="11.065"/><rect id="rect3755-1-5-9" width="242.772" height="75.739" x="183.318" y="47.055" fill="#969696" fill-opacity="1" stroke="none" display="inline" rx="6.125" ry="6.125"/><rect id="rect3755-1-5-1-7-2" width="186.276" height="18.675" x="285.598" y="66.984" fill="#969696" fill-opacity="1" stroke="#fff" stroke-dasharray="none" stroke-miterlimit="4" stroke-opacity="1" stroke-width="2.929" display="inline" rx="6.125" ry="6.125"/><rect id="rect3755-3-0-6-1-1-0" width="194.03" height="46.615" x="413.202" y="336.42" fill="#969696" fill-opacity="1" stroke="none" display="inline" rx="4.039" ry="4.039"/><rect id="rect3755-3-0-6-1-3-4-6" width="90.035" height="46.615" x="296.98" y="237.91" fill="#969696" fill-opacity="1" stroke="none" display="inline" rx="4.039" ry="4.039"/><text id="text4037" x="33.258" y="378.201" fill="#000" fill-opacity="1" stroke="none" display="inline" font-family="Sans" font-size="12.935" font-style="normal" font-weight="normal" letter-spacing="0" word-spacing="0" xml:space="preserve" style="line-height:125%"><tspan id="tspan4039" x="33.258" y="378.201">Debugger.Object</tspan></text><text id="text4041" x="218.723" y="377.522" fill="#000" fill-opacity="1" stroke="none" display="inline" font-family="Sans" font-size="12.935" font-style="normal" font-weight="normal" letter-spacing="0" word-spacing="0" xml:space="preserve" style="line-height:125%"><tspan id="tspan4043" x="218.723" y="377.522">Debugger.Environment</tspan></text><text id="text4045" x="421.849" y="377.522" fill="#000" fill-opacity="1" stroke="none" display="inline" font-family="Sans" font-size="12.935" font-style="normal" font-weight="normal" letter-spacing="0" word-spacing="0" xml:space="preserve" style="line-height:125%"><tspan id="tspan4047" x="421.849" y="377.522">Debugger.Frame</tspan></text><text id="text4049" x="29.181" y="196.813" fill="#000" fill-opacity="1" stroke="none" display="inline" font-family="Sans" font-size="12.935" font-style="normal" font-weight="normal" letter-spacing="0" word-spacing="0" xml:space="preserve" style="line-height:125%"><tspan id="tspan4051" x="29.181" y="196.813">Debugger.Object</tspan></text><text id="text4053" x="199.222" y="197.892" fill="#000" fill-opacity="1" stroke="none" display="inline" font-family="Sans" font-size="12.935" font-style="normal" font-weight="normal" letter-spacing="0" word-spacing="0" xml:space="preserve" style="line-height:125%"><tspan id="tspan4055" x="199.222" y="197.892">Debugger.Object</tspan></text><text id="text4057" x="190.189" y="118.008" fill="#000" fill-opacity="1" stroke="none" display="inline" font-family="Sans" font-size="12.935" font-style="normal" font-weight="normal" letter-spacing="0" word-spacing="0" xml:space="preserve" style="line-height:125%"><tspan id="tspan4059" x="190.189" y="118.008">Debugger.Script</tspan></text><rect id="rect3755-3-0-6-1-1-5-8" width="194.03" height="46.615" x="413.202" y="287.164" fill="#969696" fill-opacity="1" stroke="none" display="inline" rx="4.039" ry="4.039"/></g><g id="global" class="flip" display="inline" transform="translate(0,-344.09448)"><rect id="rect3755-3-0-6-1" width="177.927" height="46.615" x="201.82" y="664.159" fill="#ffd257" fill-opacity="1" stroke="none" class="nonvalue" display="inline" rx="4.039" ry="4.039"/><text id="text10970" x="210.634" y="691.887" fill="#000" fill-opacity="1" stroke="none" font-family="Sans" font-size="14.122" font-style="normal" font-weight="normal" letter-spacing="0" transform="scale(1.0007628,0.99923778)" word-spacing="0" xml:space="preserve" style="line-height:125%"><tspan id="tspan10972" x="210.634" y="691.887">global environment</tspan></text><rect id="rect3755-5-2" width="136.614" height="46.615" x="18.811" y="664.159" fill="#83d4ff" fill-opacity="1" stroke="none" rx="11.065" ry="11.065"/><path id="path11163-2" fill="none" stroke="#000" stroke-dasharray="none" stroke-linecap="butt" stroke-linejoin="miter" stroke-miterlimit="4" stroke-opacity="1" stroke-width="3" marker-end="url(#Arrow1Send-8)" marker-start="url(#DotS-1)" d="m 204.0527,687.46628 -46.26685,0"/><text id="text15699" x="3.02" y="659.444" fill="#000" fill-opacity="1" stroke="none" font-family="Sans" font-size="14.122" font-style="normal" font-weight="normal" letter-spacing="0" transform="scale(1.0007628,0.99923778)" word-spacing="0" xml:space="preserve" style="line-height:125%"><tspan id="tspan15701" x="3.02" y="659.444">global object:</tspan></text><text id="text15703" x="87.051" y="698.414" fill="#000" fill-opacity="1" stroke="none" font-family="Sans" font-size="14.122" font-style="normal" font-weight="normal" letter-spacing="0" text-anchor="middle" transform="scale(1.0007628,0.99923778)" word-spacing="0" xml:space="preserve" style="text-align:center;line-height:125%"><tspan id="tspan15707" x="87.051" y="698.414">Date; Math; ...</tspan></text></g><g id="scripts" class="flip" display="inline"><rect id="rect3755-1-5" width="243.144" height="75.74" x="176.363" y="683.061" fill="#83ff9a" fill-opacity="1" stroke="none" class="nonvalue" display="inline" rx="6.125" ry="6.125" transform="translate(0,-652.36218)"/><rect id="rect3755-1-5-1-7" width="186.561" height="18.675" x="278.799" y="702.99" fill="#83ff9a" fill-opacity="1" stroke="#e6e4dd" stroke-dasharray="none" stroke-miterlimit="4" stroke-opacity="1" stroke-width="2.929" class="nonvalue" display="inline" rx="6.125" ry="6.125" transform="translate(0,-652.36218)"/></g><g id="code" class="flip" display="inline"><text id="text10314" x="183" y="699.527" fill="#000" fill-opacity="1" stroke="none" display="inline" font-family="Sans" font-size="14.122" font-style="normal" font-weight="normal" letter-spacing="0" transform="matrix(1.0007628,0,0,0.99923777,0,-652.36218)" word-spacing="0" xml:space="preserve" style="line-height:125%"><tspan id="tspan4518" x="183" y="699.527">function alertLater(msg, delay) {</tspan><tspan id="tspan4527" x="183" y="717.179"> setTimeout( function () { alert(msg); },</tspan><tspan id="tspan4529" x="183" y="734.832"> delay);</tspan><tspan id="tspan4531" x="183" y="752.485">}</tspan></text></g><g id="alertLater" class="flip" display="inline"><rect id="rect3755-5" width="119.604" height="42.398" x="18.04" y="796.026" fill="#83d4ff" fill-opacity="1" stroke="none" display="inline" rx="11.065" ry="11.065" transform="translate(0,-652.36218)"/><text id="text3761-6" x="98.428" y="811.158" fill="#000" fill-opacity="1" stroke="none" display="inline" font-family="Sans" font-size="13.919" font-style="normal" font-weight="normal" letter-spacing="0" text-anchor="end" transform="matrix(1.0007628,0,0,0.99923778,0,-652.36218)" word-spacing="0" xml:space="preserve" style="text-align:end;line-height:125%"><tspan id="tspan3763-0" x="98.428" y="811.158">[[Code]]:</tspan></text><text id="text3765-0" x="98.428" y="831.649" fill="#000" fill-opacity="1" stroke="none" display="inline" font-family="Sans" font-size="13.919" font-style="normal" font-weight="normal" letter-spacing="0" text-anchor="end" transform="matrix(1.0007628,0,0,0.99923778,0,-652.36218)" word-spacing="0" xml:space="preserve" style="text-align:end;line-height:125%"><tspan id="tspan3767-2" x="98.428" y="831.649">[[Scope]]:</tspan></text><path id="path3773-4-3" fill="none" stroke="#e6e4dd" stroke-dasharray="none" stroke-linecap="butt" stroke-linejoin="miter" stroke-miterlimit="4" stroke-opacity="1" stroke-width="2.957" d="m 18.039736,817.89404 119.601824,0" display="inline" transform="translate(0,-652.36218)"/><text id="text10404" x="2.407" y="791.508" fill="#000" fill-opacity="1" stroke="none" display="inline" font-family="Sans" font-size="14.122" font-style="normal" font-weight="normal" letter-spacing="0" transform="matrix(1.0007628,0,0,0.99923778,0,-652.36218)" word-spacing="0" xml:space="preserve" style="line-height:125%"><tspan id="tspan10406" x="2.407" y="791.508">alertLater:</tspan></text><path id="path3868-4" fill="none" stroke="#000" stroke-dasharray="none" stroke-linecap="butt" stroke-linejoin="miter" stroke-miterlimit="4" stroke-opacity="1" stroke-width="3" marker-end="url(#Arrow1Send)" marker-start="url(#DotS)" d="m 113.60688,806.63271 c 0,-45.02374 23.466,-83.54273 59.2075,-83.54273" display="inline" transform="translate(0,-652.36218)"/><path id="path3868-4-0" fill="none" stroke="#000" stroke-dasharray="none" stroke-linecap="butt" stroke-linejoin="miter" stroke-miterlimit="4" stroke-opacity="1" stroke-width="3" marker-end="url(#Arrow1Send)" marker-start="url(#DotS)" d="m 113.60688,827.22105 c 51.73315,0 90.50566,99.84829 90.50566,141.32477" display="inline" transform="translate(0,-652.36218)"/><text id="text15703-4" x="87.051" y="991.618" fill="#000" fill-opacity="1" stroke="none" display="inline" font-family="Sans" font-size="14.122" font-style="normal" font-weight="normal" letter-spacing="0" text-anchor="middle" transform="matrix(1.0007628,0,0,0.99923778,0,-652.36218)" word-spacing="0" xml:space="preserve" style="text-align:center;line-height:125%"><tspan id="tspan15707-0" x="89.299" y="991.618">alertLater;</tspan></text></g><g id="call1env" class="flip" display="inline"><rect id="rect3755-3-0-6-1-3" width="149.35" height="46.615" x="229.789" y="270.808" fill="#ffd257" fill-opacity="1" stroke="none" class="nonvalue" display="inline" rx="4.039" ry="4.039"/><g id="g3550" display="inline" transform="matrix(0.58886915,0,0,0.58797179,4.5262952,-176.54364)"><text id="text13153" x="499.133" y="795.716" fill="#000" fill-opacity="1" stroke="none" font-family="Sans" font-size="22" font-style="normal" font-weight="normal" letter-spacing="0" text-anchor="end" transform="scale(1.0009935,0.9990075)" word-spacing="0" xml:space="preserve" style="text-align:end;line-height:125%"><tspan id="tspan13155" x="499.133" y="795.716">msg:</tspan><tspan id="tspan3538" x="499.133" y="823.216">delay:</tspan></text><text id="text3540" x="507" y="794.926" fill="#000" fill-opacity="1" stroke="none" font-family="Sans" font-size="22" font-style="normal" font-weight="normal" letter-spacing="0" word-spacing="0" xml:space="preserve" style="line-height:125%"><tspan id="tspan3542" x="507" y="794.926">&apos;xlerb&apos;</tspan><tspan id="tspan3544" x="507" y="822.426">1000</tspan></text></g></g><g id="anon" class="flip" display="inline"><rect id="rect3755-5-6" width="119.604" height="42.398" x="185.843" y="143.664" fill="#83d4ff" fill-opacity="1" stroke="none" display="inline" rx="11.065" ry="11.065"/><text id="text3761-6-0" x="266.103" y="158.298" fill="#000" fill-opacity="1" stroke="none" display="inline" font-family="Sans" font-size="13.919" font-style="normal" font-weight="normal" letter-spacing="0" text-anchor="end" transform="scale(1.0007628,0.99923778)" word-spacing="0" xml:space="preserve" style="text-align:end;line-height:125%"><tspan id="tspan3763-0-7" x="266.103" y="158.298">[[Code]]:</tspan></text><text id="text3765-0-7" x="266.103" y="178.789" fill="#000" fill-opacity="1" stroke="none" display="inline" font-family="Sans" font-size="13.919" font-style="normal" font-weight="normal" letter-spacing="0" text-anchor="end" transform="scale(1.0007628,0.99923778)" word-spacing="0" xml:space="preserve" style="text-align:end;line-height:125%"><tspan id="tspan3767-2-6" x="266.103" y="178.789">[[Scope]]:</tspan></text><path id="path3773-4-3-4" fill="none" stroke="#e6e4dd" stroke-dasharray="none" stroke-linecap="butt" stroke-linejoin="miter" stroke-miterlimit="4" stroke-opacity="1" stroke-width="2.957" d="m 185.84293,165.53187 119.60182,0" display="inline"/><path id="path3868-4-0-4-7" fill="none" stroke="#000" stroke-dasharray="none" stroke-linecap="butt" stroke-linejoin="miter" stroke-miterlimit="4" stroke-opacity="1" stroke-width="3" marker-end="url(#Arrow1Send)" marker-start="url(#DotS)" d="m 285.44496,176.59077 c 0,31.25836 -38.08897,59.76616 -38.08897,91.05227" display="inline"/><path id="path3868-4-4" fill="none" stroke="#000" stroke-dasharray="none" stroke-linecap="butt" stroke-linejoin="miter" stroke-miterlimit="4" stroke-opacity="1" stroke-width="3" marker-end="url(#Arrow1Send)" marker-start="url(#DotS)" d="m 285.95088,154.47813 c 165.68371,0 170.77148,-32.93057 158.20494,-82.18402" display="inline"/></g><g id="fire" class="flip" display="inline"><rect id="rect3755-3-0-6-1-1-4" width="194.03" height="46.615" x="406.385" y="320.064" fill="#ff9457" fill-opacity="1" stroke="none" class="nonvalue" display="inline" rx="4.039" ry="4.039"/><text id="text10970-7-4" x="434.11" y="346.934" fill="#000" fill-opacity="1" stroke="none" display="inline" font-family="Sans" font-size="12.935" font-style="normal" font-weight="normal" letter-spacing="0" word-spacing="0" xml:space="preserve" style="line-height:125%"><tspan id="tspan3534-4" x="434.11" y="346.934"><tspan id="tspan5754" font-style="italic" style="-inkscape-font-specification:Sans Italic">anonymous</tspan>()</tspan></text><rect id="rect3755-3-0-6-1-3-4" width="90.035" height="46.615" x="289.103" y="221.555" fill="#ffd257" fill-opacity="1" stroke="none" class="nonvalue" display="inline" rx="4.039" ry="4.039"/><text id="text5774" x="312.997" y="248.058" fill="#000" fill-opacity="1" stroke="none" display="inline" font-family="Sans" font-size="12.935" font-style="italic" font-weight="normal" letter-spacing="0" word-spacing="0" xml:space="preserve" style="line-height:125%;-inkscape-font-specification:Sans Italic"><tspan id="tspan5776" x="312.997" y="248.058">empty</tspan></text><path id="path11163-1" fill="none" stroke="#000" stroke-dasharray="none" stroke-linecap="butt" stroke-linejoin="miter" stroke-miterlimit="4" stroke-opacity="1" stroke-width="3" marker-end="url(#Arrow1Send-8)" marker-start="url(#DotS-1)" d="m 415.85979,342.35006 c -51.09645,0 11.10573,-95.59507 -39.0289,-95.59507" display="inline"/><path id="path11163-1-6" fill="none" stroke="#000" stroke-dasharray="none" stroke-linecap="butt" stroke-linejoin="miter" stroke-miterlimit="4" stroke-opacity="1" stroke-width="3" marker-end="url(#Arrow1Send-8)" marker-start="url(#DotS-1)" d="m 588.68444,343.33325 c 66.19678,0 27.60009,-283.14206 -117.22439,-283.14206" display="inline"/></g><g id="call2" class="flip" display="inline"><rect id="rect3755-3-0-6-1-1-5-4" width="194.03" height="46.615" x="406.385" y="270.808" fill="#ff9457" fill-opacity="1" stroke="none" class="nonvalue" display="inline" rx="4.039" ry="4.039"/><text id="text6389" x="433.863" y="298.871" fill="#000" fill-opacity="1" stroke="none" display="inline" font-family="Sans" font-size="12.935" font-style="normal" font-weight="normal" letter-spacing="0" word-spacing="0" xml:space="preserve" style="line-height:125%"><tspan id="tspan6391" x="433.863" y="298.871">alert(&apos;xlerb&apos;)</tspan></text></g></svg>