<svg xmlns="http://www.w3.org/2000/svg" width="32" height="32"><rect width="30" height="30" x="1" y="1" fill="#fff" rx="2" ry="2"/><path fill="#e3e3e3" d="M3 1h26a2 2 0 0 1 2 2v18H1V3a2 2 0 0 1 2-2z"/><rect width="18" height="11" x="10.5" y="5.5" fill="#fff" stroke="gray" rx="1" ry="1"/><circle cx="11" cy="11" r="7.5" fill="#fcfcfc" stroke="gray" stroke-width="1.2"/><path fill="#595959" d="M14 10h-3.6l1.3-1.3a1 1 0 0 0-1.4-1.4l-3 3a1 1 0 0 0 0 1.4l3 3a1 1 0 0 0 1.4-1.4L10.4 12H14a1 1 0 0 0 0-2z"/><path fill="none" stroke="#999" d="M1.5 20.5h29"/><rect width="30" height="30" x="1" y="1" fill="none" stroke="#999" stroke-width="2" rx="2" ry="2"/></svg>