<svg xmlns="http://www.w3.org/2000/svg" xmlns:xlink="http://www.w3.org/1999/xlink" preserveAspectRatio="none" viewBox="0 0 100 100"><style>.test{fill:#0f0}</style><rect width="100%" height="100%" fill="#0f0"/><rect width="8" height="8" x="11" y="11" class="ref"/><rect style="transform-box:view-box" width="10" height="10" x="10" y="10" class="test"/><rect width="8" height="8" x="26" y="11" class="ref"/><rect style="transform-box:fill-box" width="10" height="10" x="25" y="10" class="test"/><rect width="8" height="8" x="41" y="11" class="ref"/><rect style="transform-box:border-box" width="10" height="10" x="40" y="10" class="test"/><rect width="8" height="8" x="11" y="26" class="ref"/><rect style="transform-box:view-box;transform-origin:40% 60%" width="10" height="10" x="10" y="25" class="test"/><rect width="8" height="8" x="26" y="26" class="ref"/><rect style="transform-box:fill-box;transform-origin:20px 10px" width="10" height="10" x="25" y="25" class="test"/><rect width="8" height="8" x="41" y="26" class="ref"/><rect style="transform-box:border-box;transform-origin:40% 60%" width="10" height="10" x="40" y="25" class="test"/><rect width="8" height="8" x="11" y="46" class="ref"/><rect style="transform-box:fill-box;transform-origin:0 0" width="5" height="5" x="10" y="45" class="test" transform="scale(2)"/><rect width="8" height="8" x="26" y="46" class="ref"/><rect style="transform-box:fill-box;transform-origin:50% 50%" width="12" height="12" x="24" y="44" class="test" transform="rotate(45deg)"/><rect width="8" height="8" x="41" y="46" class="ref"/><rect style="transform-box:border-box;transform-origin:100% 100%" width="10" height="10" x="40" y="45" class="test" transform="scale(1)"/></svg>