<svg xmlns="http://www.w3.org/2000/svg" xmlns:xlink="http://www.w3.org/1999/xlink"><title>Reference for marker linked to local-ref URL</title><defs><marker id="limeCircle" markerHeight="8" markerWidth="8" refX="5" refY="5"><circle cx="5" cy="5" r="2" fill="#0f0" stroke="none"/></marker><marker id="blueCircle" markerHeight="8" markerWidth="8" refX="5" refY="5"><circle cx="5" cy="5" r="2" fill="#00f" stroke="none"/></marker><marker id="purpleCircle" markerHeight="8" markerWidth="8" refX="5" refY="5"><circle cx="5" cy="5" r="2" fill="purple" stroke="none"/></marker></defs><style>path{stroke:#00f;stroke-width:2px}</style><path marker-start="url(#limeCircle)" d="M20,20 L70,20 L120,20"/><path marker-start="url(#blueCircle)" d="M20,40 L70,40 L120,40"/><path marker-start="url(#blueCircle)" d="M20,60 L70,60 L120,60"/><path marker-mid="url(#limeCircle)" d="M20,80 L70,80 L120,80"/><path marker-mid="url(#blueCircle)" d="M20,100 L70,100 L120,100"/><path marker-mid="url(#blueCircle)" d="M20,120 L70,120 L120,120"/><path marker-end="url(#limeCircle)" d="M20,140 L70,140 L120,140"/><path marker-end="url(#blueCircle)" d="M20,160 L70,160 L120,160"/><path marker-end="url(#blueCircle)" d="M20,180 L70,180 L120,180"/></svg>